Oswald-900-Pole-Master.ufo
<glyph name="quotesingle" format="1">
  <advance width="314"/>
  <unicode hex="0027"/>
  <outline>
    <contour>
      <point x="10" y="1005" type="line"/>
      <point x="186" y="1005" type="line"/>
      <point x="308" y="1658" type="line"/>
      <point x="10" y="1658" type="line"/>
    </contour>
  </outline>
</glyph>
<glyph name="parenright" format="1">
  <advance width="720"/>
  <unicode hex="0029"/>
  <outline>
    <contour>
      <point x="76" y="-90" type="curve"/>
      <point x="76" y="-354" type="line"/>
      <point x="547" y="-358"/>
      <point x="600" y="116"/>
      <point x="600" y="652" type="curve" smooth="yes"/>
      <point x="600" y="1239"/>
      <point x="547" y="1681"/>
      <point x="76" y="1678" type="curve"/>
      <point x="76" y="1415" type="line"/>
      <point x="218" y="1415"/>
      <point x="259" y="1196"/>
      <point x="259" y="652" type="curve" smooth="yes"/>
      <point x="259" y="99"/>
      <point x="206" y="-90"/>
    </contour>
  </outline>
</glyph>
<glyph name="asterisk" format="1">
  <advance width="882"/>
  <unicode hex="002A"/>
  <outline>
    <contour>
      <point x="365" y="909" type="line"/>
      <point x="458" y="1113" type="line"/>
      <point x="552" y="909" type="line"/>
      <point x="773" y="1039" type="line"/>
      <point x="628" y="1238" type="line"/>
      <point x="842" y="1320" type="line"/>
      <point x="760" y="1542" type="line"/>
      <point x="572" y="1434" type="line"/>
      <point x="597" y="1658" type="line"/>
      <point x="320" y="1658" type="line"/>
      <point x="347" y="1436" type="line"/>
      <point x="158" y="1541" type="line"/>
      <point x="76" y="1322" type="line"/>
      <point x="288" y="1240" type="line"/>
      <point x="147" y="1038" type="line"/>
    </contour>
  </outline>
</glyph>
<glyph name="zero" format="1">
  <advance width="1059"/>
  <unicode hex="0030"/>
  <outline>
    <contour>
      <point x="529" y="312" type="curve" smooth="yes"/>
      <point x="454" y="312"/>
      <point x="457" y="468"/>
      <point x="457" y="500" type="curve" smooth="yes"/>
      <point x="457" y="1148" type="line" smooth="yes"/>
      <point x="457" y="1185"/>
      <point x="443" y="1337"/>
      <point x="529" y="1337" type="curve" smooth="yes"/>
      <point x="613" y="1337"/>
      <point x="602" y="1185"/>
      <point x="602" y="1148" type="curve" smooth="yes"/>
      <point x="602" y="500" type="line" smooth="yes"/>
      <point x="602" y="467"/>
      <point x="605" y="312"/>
    </contour>
    <contour>
      <point x="529" y="-35" type="curve" smooth="yes"/>
      <point x="828" y="-35"/>
      <point x="994" y="211"/>
      <point x="994" y="487" type="curve" smooth="yes"/>
      <point x="994" y="1162" type="line" smooth="yes"/>
      <point x="994" y="1449"/>
      <point x="847" y="1686"/>
      <point x="529" y="1686" type="curve" smooth="yes"/>
      <point x="209" y="1686"/>
      <point x="62" y="1451"/>
      <point x="62" y="1162" type="curve" smooth="yes"/>
      <point x="62" y="487" type="line" smooth="yes"/>
      <point x="62" y="207"/>
      <point x="223" y="-35"/>
    </contour>
  </outline>
</glyph>
<glyph name="question" format="1">
  <advance width="989"/>
  <unicode hex="003F"/>
  <outline>
    <contour>
      <point x="242" y="443" type="line"/>
      <point x="582" y="443" type="line"/>
      <point x="582" y="644" type="line"/>
      <point x="769" y="748"/>
      <point x="922" y="1033"/>
      <point x="922" y="1269" type="curve" smooth="yes"/>
      <point x="922" y="1531"/>
      <point x="759" y="1687"/>
      <point x="456" y="1687" type="curve" smooth="yes"/>
      <point x="140" y="1687"/>
      <point x="51" y="1505"/>
      <point x="51" y="1300" type="curve" smooth="yes"/>
      <point x="51" y="1214"/>
      <point x="64" y="1179"/>
      <point x="88" y="1085" type="curve"/>
      <point x="422" y="1164" type="line"/>
      <point x="405" y="1217"/>
      <point x="396" y="1222"/>
      <point x="396" y="1282" type="curve" smooth="yes"/>
      <point x="396" y="1338"/>
      <point x="433" y="1368"/>
      <point x="467" y="1368" type="curve" smooth="yes"/>
      <point x="500" y="1368"/>
      <point x="545" y="1365"/>
      <point x="552" y="1285" type="curve" smooth="yes"/>
      <point x="572" y="1068"/>
      <point x="418.37" y="850.389"/>
      <point x="242" y="711" type="curve"/>
    </contour>
    <contour>
      <point x="233" y="0" type="line"/>
      <point x="593" y="0" type="line"/>
      <point x="593" y="348" type="line"/>
      <point x="233" y="348" type="line"/>
    </contour>
  </outline>
</glyph>
<glyph name="B" format="1">
  <advance width="1194"/>
  <unicode hex="0042"/>
  <outline>
    <contour>
      <point x="318.0" y="0.0" type="line"/>
      <point x="632.0" y="0.0" type="line" smooth="yes"/>
      <point x="958.0" y="0.0"/>
      <point x="1165.0" y="136.0"/>
      <point x="1159.0" y="499.0" type="curve" smooth="yes"/>
      <point x="1155.0" y="733.0"/>
      <point x="1050.0" y="874.0"/>
      <point x="862.0" y="890.0" type="curve"/>
      <point x="1007.0" y="920.0"/>
      <point x="1100.0" y="1019.0"/>
      <point x="1105.0" y="1217.0" type="curve" smooth="yes"/>
      <point x="1115.0" y="1615.0"/>
      <point x="827.0" y="1658.0"/>
      <point x="549.0" y="1658.0" type="curve" smooth="yes"/>
      <point x="318.0" y="1658.0" type="line"/>
      <point x="318" y="1382" type="line"/>
      <point x="579" y="1382" type="line" smooth="yes"/>
      <point x="682" y="1382"/>
      <point x="745.0" y="1302.0"/>
      <point x="745.0" y="1206.0" type="curve" smooth="yes"/>
      <point x="745.0" y="1086.0"/>
      <point x="717.0" y="1004.0"/>
      <point x="562.0" y="1004.0" type="curve" smooth="yes"/>
      <point x="318.0" y="1004.0" type="line"/>
      <point x="318.0" y="742.0" type="line"/>
      <point x="565.0" y="742.0" type="line" smooth="yes"/>
      <point x="713.0" y="742.0"/>
      <point x="761.0" y="684.0"/>
      <point x="761.0" y="506.0" type="curve" smooth="yes"/>
      <point x="761.0" y="365.0"/>
      <point x="711.0" y="287.0"/>
      <point x="562.0" y="287.0" type="curve" smooth="yes"/>
      <point x="318.0" y="287.0" type="line"/>
    </contour>
    <component base="uc_main_stem" xOffset="17"/>
  </outline>
</glyph>
<glyph name="D" format="1">
  <advance width="1198"/>
  <unicode hex="0044"/>
  <outline>
    <component base="uc_main_stem" xOffset="17"/>
    <contour>
      <point x="394" y="0" type="line"/>
      <point x="538" y="0" type="line" smooth="yes"/>
      <point x="994" y="0"/>
      <point x="1118" y="149"/>
      <point x="1118" y="530" type="curve" smooth="yes"/>
      <point x="1118" y="1128" type="line" smooth="yes"/>
      <point x="1118" y="1509"/>
      <point x="994" y="1658"/>
      <point x="538" y="1658" type="curve" smooth="yes"/>
      <point x="394" y="1658" type="line"/>
      <point x="394" y="1374" type="line"/>
      <point x="545" y="1374" type="line" smooth="yes"/>
      <point x="680" y="1374"/>
      <point x="694" y="1332"/>
      <point x="694" y="1224" type="curve" smooth="yes"/>
      <point x="694" y="435" type="line" smooth="yes"/>
      <point x="694" y="327"/>
      <point x="680" y="284"/>
      <point x="545" y="284" type="curve" smooth="yes"/>
      <point x="394" y="284" type="line"/>
    </contour>
  </outline>
</glyph>
<glyph name="Q" format="1">
  <advance width="1192"/>
  <unicode hex="0051"/>
  <outline>
    <contour>
      <point x="982" y="-322" type="curve"/>
      <point x="1072" y="-94" type="line"/>
      <point x="946" y="-33"/>
      <point x="800" y="154"/>
      <point x="778" y="187" type="curve"/>
      <point x="581" y="73" type="line"/>
      <point x="627" y="-99"/>
      <point x="877" y="-282"/>
    </contour>
    <component base="O"/>
  </outline>
</glyph>
<glyph name="Y" format="1">
  <advance width="986"/>
  <unicode hex="0059"/>
  <outline>
    <contour>
      <point x="295" y="0" type="line"/>
      <point x="691" y="0" type="line"/>
      <point x="691" y="560" type="line"/>
      <point x="986" y="1658" type="line"/>
      <point x="614" y="1658" type="line"/>
      <point x="510" y="1077" type="line"/>
      <point x="384" y="1658" type="line"/>
      <point x="-5" y="1658" type="line"/>
      <point x="295" y="560" type="line"/>
    </contour>
  </outline>
</glyph>
<glyph name="bracketleft" format="1">
  <advance width="673"/>
  <unicode hex="005B"/>
  <outline>
    <contour>
      <point x="98" y="-378" type="line"/>
      <point x="631" y="-378" type="line"/>
      <point x="631" y="-244" type="line"/>
      <point x="370" y="-244" type="line"/>
      <point x="372" y="1524" type="line"/>
      <point x="633" y="1524" type="line"/>
      <point x="633" y="1658" type="line"/>
      <point x="100" y="1658" type="line"/>
    </contour>
  </outline>
</glyph>
<glyph name="k" format="1">
  <advance width="1175"/>
  <unicode hex="006B"/>
  <outline>
    <component base="lc_ascender_stem" xOffset="11"/>
    <contour>
      <point x="738" y="0" type="line"/>
      <point x="1163" y="0" type="line"/>
      <point x="845" y="679" type="line"/>
      <point x="1164" y="1184" type="line"/>
      <point x="713" y="1184" type="line"/>
      <point x="291" y="504" type="line"/>
      <point x="279" y="249" type="line"/>
      <point x="544" y="555" type="line"/>
    </contour>
  </outline>
</glyph>
<glyph name="v" format="1">
  <advance width="888"/>
  <unicode hex="0076"/>
  <outline>
    <contour>
      <point x="262" y="0" type="line"/>
      <point x="634" y="0" type="line"/>
      <point x="870" y="1184" type="line"/>
      <point x="517" y="1184" type="line"/>
      <point x="452" y="496" type="line"/>
      <point x="370" y="1184" type="line"/>
      <point x="18" y="1184" type="line"/>
    </contour>
  </outline>
</glyph>
<glyph name="braceleft" format="1">
  <advance width="817"/>
  <unicode hex="007B"/>
  <outline>
    <contour>
      <point x="748" y="-396" type="curve"/>
      <point x="748" y="-153" type="line"/>
      <point x="602" y="-153"/>
      <point x="575" y="-124"/>
      <point x="575" y="77" type="curve" smooth="yes"/>
      <point x="575" y="214" type="line" smooth="yes"/>
      <point x="575" y="456"/>
      <point x="546" y="615"/>
      <point x="383" y="653" type="curve"/>
      <point x="546" y="691"/>
      <point x="575" y="850"/>
      <point x="575" y="1092" type="curve" smooth="yes"/>
      <point x="575" y="1229" type="line" smooth="yes"/>
      <point x="575" y="1430"/>
      <point x="602" y="1459"/>
      <point x="748" y="1459" type="curve"/>
      <point x="748" y="1702" type="line"/>
      <point x="287" y="1702"/>
      <point x="241" y="1564"/>
      <point x="241" y="1254" type="curve" smooth="yes"/>
      <point x="241" y="1134" type="line" smooth="yes"/>
      <point x="241" y="818"/>
      <point x="240" y="788"/>
      <point x="103" y="788" type="curve"/>
      <point x="103" y="518" type="line"/>
      <point x="240" y="518"/>
      <point x="241" y="488"/>
      <point x="241" y="172" type="curve" smooth="yes"/>
      <point x="241" y="52" type="line" smooth="yes"/>
      <point x="241" y="-258"/>
      <point x="287" y="-396"/>
    </contour>
  </outline>
</glyph>
<glyph name="registered" format="1">
  <advance width="1824"/>
  <unicode hex="00AE"/>
  <outline>
    <contour>
      <point x="556" y="319" type="line"/>
      <point x="852" y="319" type="line"/>
      <point x="852" y="757" type="line"/>
      <point x="886" y="757" type="line"/>
      <point x="1014" y="319" type="line"/>
      <point x="1325" y="319" type="line"/>
      <point x="1150" y="814" type="line"/>
      <point x="1267" y="869"/>
      <point x="1289" y="945"/>
      <point x="1289" y="1072" type="curve" smooth="yes"/>
      <point x="1289" y="1293"/>
      <point x="1138" y="1342"/>
      <point x="906" y="1342" type="curve" smooth="yes"/>
      <point x="556" y="1342" type="line"/>
    </contour>
    <contour>
      <point x="852" y="904" type="line"/>
      <point x="852" y="1174" type="line"/>
      <point x="904" y="1174" type="line" smooth="yes"/>
      <point x="985" y="1174"/>
      <point x="1019" y="1121"/>
      <point x="1019" y="1044" type="curve" smooth="yes"/>
      <point x="1019" y="969"/>
      <point x="989" y="904"/>
      <point x="891" y="904" type="curve" smooth="yes"/>
    </contour>
    <contour>
      <point x="912" y="81" type="curve" smooth="yes"/>
      <point x="430" y="81"/>
      <point x="221" y="454"/>
      <point x="221" y="827" type="curve" smooth="yes"/>
      <point x="221" y="1202"/>
      <point x="430" y="1571"/>
      <point x="912" y="1571" type="curve" smooth="yes"/>
      <point x="1390" y="1571"/>
      <point x="1600" y="1202"/>
      <point x="1600" y="827" type="curve" smooth="yes"/>
      <point x="1600" y="454"/>
      <point x="1390" y="81"/>
    </contour>
    <contour>
      <point x="913" y="-28" type="curve" smooth="yes"/>
      <point x="1493" y="-28"/>
      <point x="1726" y="415"/>
      <point x="1726" y="828" type="curve" smooth="yes"/>
      <point x="1726" y="1241"/>
      <point x="1491" y="1684"/>
      <point x="913" y="1684" type="curve" smooth="yes"/>
      <point x="333" y="1684"/>
      <point x="98" y="1241"/>
      <point x="98" y="828" type="curve" smooth="yes"/>
      <point x="98" y="417"/>
      <point x="333" y="-28"/>
    </contour>
  </outline>
</glyph>
<glyph name="degree" format="1">
  <advance width="1167"/>
  <unicode hex="00B0"/>
  <outline>
    <contour>
      <point x="582" y="1023" type="curve" smooth="yes"/>
      <point x="449" y="1023"/>
      <point x="372" y="1122"/>
      <point x="372" y="1258" type="curve" smooth="yes"/>
      <point x="372" y="1395"/>
      <point x="449" y="1489"/>
      <point x="582" y="1489" type="curve" smooth="yes"/>
      <point x="718" y="1489"/>
      <point x="793" y="1393"/>
      <point x="793" y="1257" type="curve" smooth="yes"/>
      <point x="793" y="1121"/>
      <point x="717" y="1023"/>
    </contour>
    <contour>
      <point x="582" y="831" type="curve" smooth="yes"/>
      <point x="844" y="831"/>
      <point x="1019" y="1002"/>
      <point x="1019" y="1258" type="curve" smooth="yes"/>
      <point x="1019" y="1515"/>
      <point x="841" y="1683"/>
      <point x="582" y="1683" type="curve" smooth="yes"/>
      <point x="324" y="1683"/>
      <point x="148" y="1515"/>
      <point x="148" y="1258" type="curve" smooth="yes"/>
      <point x="148" y="1003"/>
      <point x="323" y="831"/>
    </contour>
  </outline>
</glyph>
<glyph name="multiply" format="1">
  <advance width="1068"/>
  <unicode hex="00D7"/>
  <outline>
    <contour>
      <point x="792" y="445" type="line"/>
      <point x="955" y="610" type="line"/>
      <point x="699" y="866" type="line"/>
      <point x="955" y="1123" type="line"/>
      <point x="790" y="1286" type="line"/>
      <point x="535" y="1031" type="line"/>
      <point x="279" y="1286" type="line"/>
      <point x="114" y="1120" type="line"/>
      <point x="370" y="866" type="line"/>
      <point x="114" y="610" type="line"/>
      <point x="280" y="445" type="line"/>
      <point x="535" y="701" type="line"/>
    </contour>
  </outline>
</glyph>
<glyph name="Thorn" format="1">
  <advance width="1192"/>
  <unicode hex="00DE"/>
  <outline>
    <contour>
      <point x="324" y="478" type="line"/>
      <point x="631" y="480" type="line" smooth="yes"/>
      <point x="993" y="483"/>
      <point x="1164" y="563"/>
      <point x="1164" y="982" type="curve" smooth="yes"/>
      <point x="1164" y="1326"/>
      <point x="989" y="1436"/>
      <point x="641" y="1436" type="curve" smooth="yes"/>
      <point x="324" y="1436" type="line"/>
      <point x="324" y="1148" type="line"/>
      <point x="623" y="1148" type="line" smooth="yes"/>
      <point x="748" y="1148"/>
      <point x="792" y="1084"/>
      <point x="792" y="959" type="curve" smooth="yes"/>
      <point x="792" y="823"/>
      <point x="748" y="765"/>
      <point x="619" y="765" type="curve" smooth="yes"/>
      <point x="324" y="765" type="line"/>
    </contour>
    <component base="uc_main_stem" xOffset="17"/>
  </outline>
</glyph>
<glyph name="OE" format="1">
  <advance width="1473"/>
  <unicode hex="0152"/>
  <outline>
    <contour>
      <point x="589" y="0" type="curve" smooth="yes"/>
      <point x="1421" y="0" type="line"/>
      <point x="1421" y="275" type="line"/>
      <point x="1097" y="275" type="line"/>
      <point x="1097" y="713" type="line"/>
      <point x="1326" y="713" type="line"/>
      <point x="1326" y="999" type="line"/>
      <point x="1097" y="999" type="line"/>
      <point x="1097" y="1375" type="line"/>
      <point x="1421" y="1375" type="line"/>
      <point x="1421" y="1650" type="line"/>
      <point x="589" y="1650" type="line"/>
      <point x="201" y="1649"/>
      <point x="80" y="1376"/>
      <point x="80" y="1046" type="curve" smooth="yes"/>
      <point x="80" y="591" type="line" smooth="yes"/>
      <point x="80" y="242"/>
      <point x="209" y="0"/>
    </contour>
    <contour>
      <point x="589" y="280" type="line"/>
      <point x="497" y="279"/>
      <point x="492" y="413"/>
      <point x="492" y="487" type="curve" smooth="yes"/>
      <point x="492" y="1150" type="line" smooth="yes"/>
      <point x="492" y="1221"/>
      <point x="498" y="1359"/>
      <point x="589" y="1359" type="curve" smooth="yes"/>
      <point x="686" y="1359" type="line"/>
      <point x="686" y="280" type="line"/>
    </contour>
  </outline>
</glyph>
<glyph name="uni0237" format="1">
  <advance width="579"/>
  <unicode hex="0237"/>
  <outline>
    <contour>
      <point x="494" y="-65" type="curve" smooth="yes"/>
      <point x="494" y="1184" type="line"/>
      <point x="122" y="1184" type="line"/>
      <point x="122" y="-19" type="line" smooth="yes"/>
      <point x="122" y="-86"/>
      <point x="85" y="-104"/>
      <point x="42" y="-104" type="curve" smooth="yes"/>
      <point x="23" y="-104"/>
      <point x="3" y="-99"/>
      <point x="-17" y="-95" type="curve"/>
      <point x="-17" y="-362" type="line"/>
      <point x="46" y="-379"/>
      <point x="111" y="-393"/>
      <point x="183" y="-393" type="curve" smooth="yes"/>
      <point x="392" y="-393"/>
      <point x="494" y="-253"/>
    </contour>
  </outline>
</glyph>
<glyph name="uni030F" format="1">
  <advance width="1011"/>
  <unicode hex="030F"/>
  <outline>
    <contour>
      <point x="288" y="1264" type="line"/>
      <point x="493" y="1264" type="line"/>
      <point x="358" y="1712" type="line"/>
      <point x="92" y="1712" type="line"/>
    </contour>
    <contour>
      <point x="677" y="1264" type="line"/>
      <point x="879" y="1264" type="line"/>
      <point x="743" y="1712" type="line"/>
      <point x="480" y="1712" type="line"/>
    </contour>
  </outline>
</glyph>
<glyph name="afii10053" format="1">
  <advance width="1129"/>
  <unicode hex="0404"/>
  <outline>
    <contour>
      <point x="594" y="-26" type="curve" smooth="yes"/>
      <point x="981" y="-26"/>
      <point x="1092" y="187"/>
      <point x="1092" y="462" type="curve" smooth="yes"/>
      <point x="1092" y="548" type="line"/>
      <point x="686" y="548" type="line"/>
      <point x="686" y="418" type="line" smooth="yes"/>
      <point x="686" y="352"/>
      <point x="684" y="258"/>
      <point x="594" y="258" type="curve" smooth="yes"/>
      <point x="504" y="258"/>
      <point x="498" y="352"/>
      <point x="498" y="418" type="curve" smooth="yes"/>
      <point x="498" y="1241" type="line" smooth="yes"/>
      <point x="498" y="1307"/>
      <point x="504" y="1400"/>
      <point x="594" y="1400" type="curve" smooth="yes"/>
      <point x="684" y="1400"/>
      <point x="686" y="1307"/>
      <point x="686" y="1241" type="curve" smooth="yes"/>
      <point x="686" y="1092" type="line"/>
      <point x="1092" y="1092" type="line"/>
      <point x="1092" y="1205" type="line" smooth="yes"/>
      <point x="1092" y="1480"/>
      <point x="981" y="1684"/>
      <point x="594" y="1684" type="curve" smooth="yes"/>
      <point x="207" y="1684"/>
      <point x="78" y="1476"/>
      <point x="78" y="1129" type="curve" smooth="yes"/>
      <point x="78" y="529" type="line" smooth="yes"/>
      <point x="78" y="182"/>
      <point x="207" y="-26"/>
    </contour>
    <contour>
      <point x="278" y="723" type="line"/>
      <point x="712" y="723" type="line"/>
      <point x="712" y="932" type="line"/>
      <point x="278" y="932" type="line"/>
    </contour>
  </outline>
</glyph>
<glyph name="afii10020" format="1">
  <advance width="970"/>
  <unicode hex="0413"/>
  <outline>
    <component base="uc_main_stem" xOffset="17"/>
    <contour>
      <point x="311" y="1353" type="line"/>
      <point x="910" y="1353" type="line"/>
      <point x="910" y="1658" type="line"/>
      <point x="311" y="1658" type="line"/>
    </contour>
  </outline>
</glyph>
<glyph name="afii10040" format="1">
  <advance width="1416"/>
  <unicode hex="0426"/>
  <outline>
    <component base="uc_main_stem" xOffset="17"/>
    <component base="uc_main_stem" xOffset="642"/>
    <contour>
      <point x="1086" y="-378" type="line"/>
      <point x="1384" y="-378" type="line"/>
      <point x="1384" y="275" type="line"/>
      <point x="316" y="275" type="line"/>
      <point x="316" y="0" type="line"/>
      <point x="1065" y="0" type="line"/>
    </contour>
  </outline>
</glyph>
<glyph name="afii10044" format="1">
  <advance width="1309"/>
  <unicode hex="042A"/>
  <outline>
    <component base="cyrillic_uc_right_bowl" xOffset="62"/>
    <component base="uc_main_stem" xOffset="184"/>
    <contour>
      <point x="16" y="1383" type="line"/>
      <point x="474" y="1383" type="line"/>
      <point x="474" y="1658" type="line"/>
      <point x="16" y="1658" type="line"/>
    </contour>
  </outline>
</glyph>
<glyph name="afii10049" format="1">
  <advance width="1207"/>
  <unicode hex="042F"/>
  <outline>
    <component base="uc_main_stem" xOffset="616"/>
    <contour>
      <point x="554" y="704" type="curve" smooth="yes"/>
      <point x="914" y="704" type="line"/>
      <point x="914" y="995" type="line"/>
      <point x="623" y="995" type="line" smooth="yes"/>
      <point x="468" y="995"/>
      <point x="424" y="1070"/>
      <point x="424" y="1176" type="curve" smooth="yes"/>
      <point x="424" y="1325"/>
      <point x="490" y="1378"/>
      <point x="619" y="1378" type="curve" smooth="yes"/>
      <point x="914" y="1378" type="line"/>
      <point x="914" y="1658" type="line"/>
      <point x="627" y="1658" type="line" smooth="yes"/>
      <point x="358" y="1658"/>
      <point x="43" y="1604"/>
      <point x="43" y="1180" type="curve" smooth="yes"/>
      <point x="43" y="866"/>
      <point x="256" y="704"/>
    </contour>
    <contour>
      <point x="75" y="0" type="line"/>
      <point x="496" y="0" type="line"/>
      <point x="629" y="802" type="line"/>
      <point x="268" y="958" type="line"/>
    </contour>
  </outline>
</glyph>
<glyph name="afii10074" format="1">
  <advance width="1042"/>
  <unicode hex="0438"/>
  <outline>
    <component base="lc_xheight_stem" xScale="0.883118" xOffset="561"/>
    <component base="lc_xheight_stem" xScale="0.862971" xOffset="18"/>
    <contour>
      <point x="415" y="0" type="line"/>
      <point x="789" y="936" type="line"/>
      <point x="636" y="1184" type="line"/>
      <point x="268" y="258" type="line"/>
    </contour>
  </outline>
</glyph>
<glyph name="afii10077" format="1">
  <advance width="1187"/>
  <unicode hex="043B"/>
  <outline>
    <contour>
      <point x="236" y="-14" type="curve" smooth="yes"/>
      <point x="469" y="-14"/>
      <point x="557" y="150"/>
      <point x="586" y="487" type="curve"/>
      <point x="637" y="1184" type="line"/>
      <point x="305" y="1184" type="line"/>
      <point x="254" y="533" type="line"/>
      <point x="233" y="307"/>
      <point x="164" y="246"/>
      <point x="35" y="246" type="curve"/>
      <point x="35" y="0" type="line"/>
      <point x="112" y="-9"/>
      <point x="179" y="-14"/>
    </contour>
    <component base="lc_xheight_stem" xOffset="653"/>
    <component base="uc_horiz_bar" xScale="0.714982" yScale="0.795059" xOffset="322" yOffset="933"/>
  </outline>
</glyph>
<glyph name="afii10085" format="1">
  <advance width="860"/>
  <unicode hex="0443"/>
  <outline>
    <contour>
      <point x="38" y="-426" type="line"/>
      <point x="484" y="-426"/>
      <point x="560" y="-312"/>
      <point x="620" y="0" type="curve" smooth="yes"/>
      <point x="856" y="1217" type="line"/>
      <point x="513" y="1217" type="line"/>
      <point x="438" y="496" type="line"/>
      <point x="346" y="1217" type="line"/>
      <point x="4" y="1217" type="line"/>
      <point x="232" y="91" type="line" smooth="yes"/>
      <point x="267" y="-81"/>
      <point x="233" y="-137"/>
      <point x="3" y="-137" type="curve"/>
    </contour>
  </outline>
</glyph>
<glyph name="afii10086" format="1">
  <advance width="1465"/>
  <unicode hex="0444"/>
  <outline>
    <component base="uc_main_stem" xScale="0.769417" yScale="1.23476" xOffset="510" yOffset="-390"/>
    <contour>
      <point x="484" y="209" type="line" smooth="yes"/>
      <point x="445" y="208"/>
      <point x="421" y="245"/>
      <point x="421" y="286" type="curve" smooth="yes"/>
      <point x="421" y="900" type="line" smooth="yes"/>
      <point x="421" y="954"/>
      <point x="443" y="993"/>
      <point x="488" y="990" type="curve" smooth="yes"/>
      <point x="733" y="975" type="line"/>
      <point x="977" y="990" type="line" smooth="yes"/>
      <point x="1022" y="993"/>
      <point x="1044" y="954"/>
      <point x="1044" y="900" type="curve" smooth="yes"/>
      <point x="1044" y="286" type="line" smooth="yes"/>
      <point x="1044" y="245"/>
      <point x="1020" y="208"/>
      <point x="981" y="209" type="curve" smooth="yes"/>
      <point x="728" y="217" type="line"/>
    </contour>
    <contour>
      <point x="320" y="-17" type="curve" smooth="yes"/>
      <point x="741" y="8" type="line"/>
      <point x="1145" y="-17" type="line" smooth="yes"/>
      <point x="1300" y="-27"/>
      <point x="1393" y="72"/>
      <point x="1393" y="278" type="curve" smooth="yes"/>
      <point x="1393" y="915" type="line" smooth="yes"/>
      <point x="1393" y="1116"/>
      <point x="1291" y="1223"/>
      <point x="1142" y="1210" type="curve" smooth="yes"/>
      <point x="737" y="1176" type="line"/>
      <point x="323" y="1210" type="line" smooth="yes"/>
      <point x="174" y="1222"/>
      <point x="72" y="1116"/>
      <point x="72" y="915" type="curve" smooth="yes"/>
      <point x="72" y="278" type="line" smooth="yes"/>
      <point x="72" y="72"/>
      <point x="166" y="-26"/>
    </contour>
  </outline>
</glyph>
<glyph name="uni2074" format="1">
  <advance width="1011"/>
  <unicode hex="2074"/>
  <outline>
    <contour>
      <point x="464" y="402" type="line"/>
      <point x="805" y="402" type="line"/>
      <point x="805" y="693" type="line"/>
      <point x="936" y="693" type="line"/>
      <point x="936" y="862" type="line"/>
      <point x="805" y="862" type="line"/>
      <point x="805" y="1658" type="line"/>
      <point x="454" y="1658" type="line"/>
      <point x="83" y="858" type="line"/>
      <point x="83" y="693" type="line"/>
      <point x="464" y="693" type="line"/>
    </contour>
    <contour>
      <point x="269" y="862" type="line"/>
      <point x="464" y="1284" type="line"/>
      <point x="464" y="862" type="line"/>
    </contour>
  </outline>
</glyph>
<glyph name="radical" format="1">
  <advance width="1169"/>
  <unicode hex="221A"/>
  <outline>
    <contour>
      <point x="885" y="0" type="line"/>
      <point x="1146" y="1658" type="line"/>
      <point x="773" y="1658" type="line"/>
      <point x="716" y="1022" type="line"/>
      <point x="663" y="495" type="line"/>
      <point x="597" y="1022" type="line"/>
      <point x="574" y="1184" type="line"/>
      <point x="6" y="1184" type="line"/>
      <point x="6" y="946" type="line"/>
      <point x="273" y="946" type="line"/>
      <point x="435" y="0" type="line"/>
    </contour>
  </outline>
</glyph>
<glyph name="onesuperior" format="1">
  <advance width="878"/>
  <outline>
    <contour>
      <point x="348" y="624" type="line"/>
      <point x="629" y="624" type="line"/>
      <point x="629" y="1818" type="line"/>
      <point x="408" y="1818" type="line"/>
      <point x="364" y="1761"/>
      <point x="189" y="1703"/>
      <point x="148" y="1685" type="curve"/>
      <point x="148" y="1476" type="line"/>
      <point x="348" y="1531" type="line"/>
    </contour>
  </outline>
</glyph>
<glyph name="tt" format="1">
  <advance width="1208"/>
  <outline>
    <contour>
      <point x="403" y="-13" type="curve" smooth="yes"/>
      <point x="473" y="-13"/>
      <point x="562" y="-14"/>
      <point x="628" y="7" type="curve"/>
      <point x="628" y="304" type="line"/>
      <point x="596" y="300"/>
      <point x="568" y="300"/>
      <point x="536" y="300" type="curve" smooth="yes"/>
      <point x="483" y="300"/>
      <point x="457" y="321"/>
      <point x="457" y="361" type="curve" smooth="yes"/>
      <point x="457" y="958" type="line"/>
      <point x="668" y="958" type="line"/>
      <point x="668" y="469" type="line" smooth="yes"/>
      <point x="668" y="234"/>
      <point x="698" y="-13"/>
      <point x="990" y="-13" type="curve" smooth="yes"/>
      <point x="1060" y="-13"/>
      <point x="1149" y="-14"/>
      <point x="1215" y="7" type="curve"/>
      <point x="1215" y="304" type="line"/>
      <point x="1183" y="300"/>
      <point x="1154" y="300"/>
      <point x="1122" y="300" type="curve" smooth="yes"/>
      <point x="1069" y="300"/>
      <point x="1044" y="321"/>
      <point x="1044" y="361" type="curve" smooth="yes"/>
      <point x="1044" y="958" type="line"/>
      <point x="1179" y="958" type="line"/>
      <point x="1179" y="1217" type="line"/>
      <point x="1044" y="1217" type="line"/>
      <point x="1044" y="1605" type="line"/>
      <point x="668" y="1605" type="line"/>
      <point x="668" y="1217" type="line"/>
      <point x="457" y="1217" type="line"/>
      <point x="457" y="1605" type="line"/>
      <point x="81" y="1605" type="line"/>
      <point x="81" y="1217" type="line"/>
      <point x="21" y="1217" type="line"/>
      <point x="21" y="958" type="line"/>
      <point x="81" y="958" type="line"/>
      <point x="81" y="469" type="line" smooth="yes"/>
      <point x="81" y="234"/>
      <point x="111" y="-13"/>
    </contour>
  </outline>
</glyph>
